<?xml version="1.0" encoding="utf-8"?><svg viewBox="0 0 40 38" xmlns="http://www.w3.org/2000/svg" xmlns:xlink="http://www.w3.org/1999/xlink"><style>:root>svg{display:none}:root>svg:target{display:block}</style><svg viewBox="0 0 22 14" id="icon-arrow-down" xmlns="http://www.w3.org/2000/svg"><path d="M21 1l-9.401 12L1 2.205"/></svg><svg viewBox="0 0 14 22" id="icon-arrow-left" xmlns="http://www.w3.org/2000/svg"><path d="M13 21L1 11.599 11.794 1"/></svg><svg viewBox="0 0 14 22" id="icon-arrow-right" xmlns="http://www.w3.org/2000/svg"><path d="M1 1l12 9.401L2.205 21"/></svg><svg viewBox="0 0 22 14" id="icon-arrow-up" xmlns="http://www.w3.org/2000/svg"><path d="M1 13l9.401-12L21 11.794"/></svg><svg viewBox="0 0 40 38" id="icon-heart" xmlns="http://www.w3.org/2000/svg"><path d="M20 6.87l-1.793-1.843C14 .702 6.285 2.196 3.5 7.633c-1.307 2.557-1.602 6.25.785 10.962 2.3 4.538 7.085 9.973 15.715 15.892 8.63-5.92 13.413-11.355 15.715-15.892 2.387-4.715 2.095-8.405.785-10.962C33.715 2.195 26 .7 21.793 5.024L20 6.87zm0 30.63C-18.332 12.17 8.198-7.6 19.56 2.858c.15.137.298.28.44.427.141-.147.288-.29.44-.425C31.8-7.605 58.332 12.168 20 37.5z"/></svg><svg viewBox="0 0 26 10" id="icon-long-arrow-right" xmlns="http://www.w3.org/2000/svg"><path d="M24.03 4.576L19.915.666 20.617 0l5.262 5-5.262 5-.701-.667L23.93 5.52H.424v-.943H24.03z"/></svg><svg viewBox="0 0 18 30" id="icon-od" xmlns="http://www.w3.org/2000/svg"><path d="M8.572 0C4.359 0 .932 3.473.932 7.743c0 4.27 3.427 7.74 7.64 7.74 4.212 0 7.637-3.47 7.637-7.74S12.784 0 8.572 0zm0 4.537c1.743 0 3.16 1.439 3.16 3.206 0 1.766-1.417 3.204-3.16 3.204-1.744 0-3.163-1.438-3.163-3.204 0-1.767 1.419-3.206 3.163-3.206zm-6.298 11.21a2.227 2.227 0 00-1.93 1.062 2.288 2.288 0 00.7 3.129 14.228 14.228 0 004.435 1.86l-4.269 4.33a2.29 2.29 0 00.001 3.208 2.219 2.219 0 003.165 0l4.194-4.254 4.198 4.253a2.214 2.214 0 003.163 0 2.289 2.289 0 000-3.207l-4.27-4.328a14.2 14.2 0 004.434-1.862 2.287 2.287 0 00.704-3.129 2.22 2.22 0 00-3.087-.712 9.588 9.588 0 01-10.283 0c-.36-.23-.76-.344-1.155-.35z"/></svg><svg viewBox="0 0 16 15" id="icon-search" xmlns="http://www.w3.org/2000/svg"><path fill-rule="evenodd" clip-rule="evenodd" d="M11.308 11.096A6.667 6.667 0 016.624 13C2.966 13 0 10.09 0 6.5S2.966 0 6.624 0c3.658 0 6.624 2.91 6.624 6.5a6.39 6.39 0 01-1.28 3.842L16 14.3l-.714.7-3.978-3.904zm.94-4.596c0 3.02-2.5 5.5-5.624 5.5C3.5 12 1 9.52 1 6.5S3.5 1 6.624 1c3.124 0 5.624 2.48 5.624 5.5z"/></svg><svg viewBox="0 0 30 28" id="icon-star" xmlns="http://www.w3.org/2000/svg"><path d="M23.47 27.41a.377.377 0 01-.206-.062L15 21.951l-8.265 5.397a.375.375 0 01-.567-.412l2.578-9.528-7.685-6.193a.374.374 0 01.216-.667l9.859-.492L14.65.833c.11-.292.59-.292.701 0l3.514 9.223 9.86.492a.375.375 0 01.215.667l-7.685 6.193 2.578 9.528a.374.374 0 01-.363.473zM15 21.128c.073 0 .144.02.205.06l7.645 4.993-2.385-8.815a.377.377 0 01.127-.39l7.11-5.73-9.12-.454a.373.373 0 01-.332-.24L15 2.018l-3.251 8.533a.373.373 0 01-.331.24l-9.12.455 7.11 5.73a.377.377 0 01.127.39L7.15 26.182l7.645-4.993a.372.372 0 01.205-.06z"/></svg><svg viewBox="0 0 26 22" id="icon-telegram" xmlns="http://www.w3.org/2000/svg"><path d="M23.831.646L1.67 9.193C.156 9.8.165 10.643 1.39 11.02l5.69 1.775 13.165-8.306c.623-.379 1.192-.175.724.24l-10.666 9.626H10.3l.003.001-.393 5.865c.575 0 .829-.264 1.152-.575l2.763-2.687 5.749 4.246c1.06.584 1.821.284 2.085-.981l3.774-17.785C25.82.89 24.843.189 23.83.646z"/></svg><svg viewBox="0 0 30 18" id="icon-vk" xmlns="http://www.w3.org/2000/svg"><path fill-rule="evenodd" clip-rule="evenodd" d="M29.313 1.435c.207-.683 0-1.185-.994-1.185h-3.281c-.835 0-1.22.434-1.43.913 0 0-1.668 3.994-4.032 6.59-.765.752-1.112.99-1.53.99-.209 0-.522-.238-.522-.922V1.435c0-.82-.23-1.185-.925-1.185h-5.16c-.521 0-.835.38-.835.741 0 .777 1.182.957 1.304 3.142V8.88c0 1.041-.192 1.23-.61 1.23-1.112 0-3.818-4.014-5.424-8.606C5.563.61 5.247.25 4.409.25H1.125C.187.25 0 .684 0 1.163 0 2.014 1.113 6.25 5.181 11.85c2.713 3.825 6.532 5.899 10.01 5.899 2.086 0 2.344-.46 2.344-1.254v-2.891c0-.921.198-1.105.859-1.105.487 0 1.321.24 3.269 2.084 2.224 2.186 2.59 3.166 3.843 3.166h3.282c.937 0 1.407-.46 1.137-1.37-.297-.905-1.36-2.219-2.769-3.777-.765-.888-1.912-1.844-2.261-2.323-.486-.614-.348-.887 0-1.434 0 0 4-5.532 4.416-7.411h.002z"/></svg></svg>